# xmcd CD database file
#
# Track frame offsets:
#	150
#	27942
#	56557
#	78667
#	98482
#	119972
#	140307
#	159365
#	173622
#	191850
#	216165
#	234915
#
# Disc length: 3391 seconds
#
# Revision: 0
# Processed by: cddbd v1.4PL0 Copyright (c) Steve Scherf et al.
# Submitted via: CDex 1.40Release
#
DISCID=9f0d3d0c
DTITLE=Jack Pearson - -
DYEAR=1999
DGENRE=Blues
TTITLE0=Hang On
TTITLE1=La Esperanza De Inez
TTITLE2=Take Your Time
TTITLE3=Never Alone
TTITLE4=Changed
TTITLE5=Get To It
TTITLE6=Ephesians 2-8
TTITLE7=Roll It Back
TTITLE8=Last Stop
TTITLE9=And Now You Know
TTITLE10=Tupelo Blues
TTITLE11=Home Cookin'
EXTD=YEAR: 1999 ID3G: 0
EXTT0=
EXTT1=
EXTT2=
EXTT3=
EXTT4=
EXTT5=
EXTT6=
EXTT7=
EXTT8=
EXTT9=
EXTT10=
EXTT11=
PLAYORDER=
